<svg width="18" height="18" viewBox="0 0 18 18" fill="none" xmlns="http://www.w3.org/2000/svg">
<circle cx="9" cy="9" r="8.5" fill="#F36C6E" stroke="#DA3032"/>
<path d="M10.7625 10.6706C10.7625 10.9744 10.641 11.2174 10.4587 11.4604L7.7857 14.5586C7.6642 14.7409 7.4212 14.8016 7.1782 14.7409C6.9352 14.6801 6.8137 14.5586 6.6922 14.3156L6.5707 14.0119C6.4492 13.7081 6.50995 13.3436 6.63145 13.1006L7.72495 11.0959H4.3837C4.20145 11.0959 4.0192 10.9744 3.8977 10.8529C3.7762 10.6706 3.7762 10.4884 3.83695 10.3061L5.5987 5.81064C5.78095 5.32464 6.2062 5.02089 6.75295 5.02089H10.155C10.5195 5.02089 10.7625 5.26389 10.7625 5.62839V10.6706Z" fill="white"/>
<path d="M11.9776 10.4882C11.9776 10.8527 12.2206 11.0957 12.585 11.0957H13.8V5.0207H12.585C12.2206 5.0207 11.9776 5.2637 11.9776 5.6282V10.4882Z" fill="white"/>
</svg>
