<svg width="24" height="24" viewBox="0 0 24 24" fill="none" xmlns="http://www.w3.org/2000/svg">
<path d="M8.29407 10.1534C8.29407 9.62394 8.50583 9.20041 8.82348 8.77688L13.4823 3.37688C13.6941 3.05924 14.1176 2.95335 14.5411 3.05924C14.9647 3.16512 15.1764 3.37688 15.3882 3.80041L15.5999 4.32983C15.8117 4.85924 15.7058 5.49453 15.4941 5.91806L13.5882 9.41218H19.4117C19.7294 9.41218 20.047 9.62394 20.2588 9.83571C20.4705 10.1534 20.4705 10.471 20.3647 10.7886L17.2941 18.6239C16.9764 19.471 16.2352 20.0004 15.2823 20.0004H9.35289C8.7176 20.0004 8.29407 19.5769 8.29407 18.9416V10.1534Z" fill="#9EC74A" stroke="#9EC74A"/>
<path d="M6.17647 10.4709C6.17647 9.83564 5.75294 9.41211 5.11765 9.41211H3V20.0003H5.11765C5.75294 20.0003 6.17647 19.5768 6.17647 18.9415V10.4709Z" fill="#9EC74A" stroke="#9EC74A"/>
</svg>
