<svg width="18" height="18" viewBox="0 0 18 18" fill="none" xmlns="http://www.w3.org/2000/svg">
<circle cx="9" cy="9" r="8.5" fill="#9EC74A" stroke="#779C2A"/>
<path d="M7.5376 7.92897C7.5376 7.62522 7.6591 7.38222 7.84135 7.13922L10.5143 4.04097C10.6358 3.85872 10.8788 3.79797 11.1218 3.85872C11.3648 3.91947 11.4863 4.04097 11.6078 4.28397L11.7293 4.58772C11.8508 4.89147 11.7901 5.25597 11.6686 5.49897L10.5751 7.50372H13.9163C14.0986 7.50372 14.2808 7.62522 14.4023 7.74672C14.5238 7.92897 14.5238 8.11122 14.4631 8.29347L12.7013 12.789C12.5191 13.275 12.0938 13.5787 11.5471 13.5787H8.1451C7.7806 13.5787 7.5376 13.3357 7.5376 12.9712V7.92897Z" fill="white"/>
<path d="M6.3225 8.11141C6.3225 7.74691 6.0795 7.50391 5.715 7.50391H4.5V13.5789H5.715C6.0795 13.5789 6.3225 13.3359 6.3225 12.9714V8.11141Z" fill="white"/>
</svg>
