<svg width="45" height="46" viewBox="0 0 45 46" fill="none" xmlns="http://www.w3.org/2000/svg">
<circle cx="22" cy="23" r="22" fill="#F9F9F9" stroke="#BCBDBE"/>
<mask id="mask0_1306_50302" style="mask-type:alpha" maskUnits="userSpaceOnUse" x="-1" y="0" width="46" height="46">
<circle cx="22" cy="23" r="22" fill="white" stroke="white"/>
</mask>
<g mask="url(#mask0_1306_50302)">
<mask id="mask1_1306_50302" style="mask-type:alpha" maskUnits="userSpaceOnUse" x="0" y="1" width="44" height="44">
<circle cx="22" cy="23" r="22" fill="white"/>
</mask>
<g mask="url(#mask1_1306_50302)">
<g opacity="0.5">
<path fill-rule="evenodd" clip-rule="evenodd" d="M93.5421 63.2418L64.0047 33L34.4673 63.2418L4.92521 33L-1 39.0665V107.933L4.92521 114L34.4673 83.7677L64.0047 114L93.5421 83.7677L123.079 114L129 107.938V39.0617L123.079 33L93.5421 63.2418Z" fill="#FF4367"/>
<path fill-rule="evenodd" clip-rule="evenodd" d="M93.5421 49.2335L64.0047 19L34.4673 49.2335L4.92521 19L-1 25.0658V93.9342L4.92521 100L34.4673 69.7569L64.0047 100L93.5421 69.7569L123.079 100L129 93.939V25.061L123.079 19L93.5421 49.2335Z" fill="#FF585F"/>
<path fill-rule="evenodd" clip-rule="evenodd" d="M93.5421 36.2418L64.0047 6L34.4673 36.2418L4.92521 6L-1 12.0617V80.9335L4.92521 87L34.4673 56.7582L64.0047 87L93.5421 56.7582L123.079 87L129 80.9383V12.057L123.079 6L93.5421 36.2418Z" fill="#FF6D56"/>
<path fill-rule="evenodd" clip-rule="evenodd" d="M93.5421 22.2401L64.0047 -8L34.4673 22.2401L4.92521 -8L-1 -1.93861V66.9338L4.92521 73L34.4673 42.7552L64.0047 73L93.5421 42.7552L123.079 73L129 66.9386V-1.94339L123.079 -8L93.5421 22.2401Z" fill="#FF814D"/>
<path fill-rule="evenodd" clip-rule="evenodd" d="M109.601 -8L93.5421 8.39524L77.4787 -8H50.526L34.4673 8.39524L18.4039 -8H-1V52.9524L4.92521 59L34.4673 28.8429L64.0047 59L93.5421 28.8429L123.079 59L129 52.9571V-8H109.601Z" fill="#FF9645"/>
<path fill-rule="evenodd" clip-rule="evenodd" d="M95.9996 -8L93.5408 -5.49588L91.0866 -8H36.9227L34.4639 -5.49588L32.0097 -8H-1V38.9654L4.92542 45L34.4639 14.9172L64.0023 45L93.5408 14.9172L123.079 45L129 38.9701V-8H95.9996Z" fill="#FFAA3C"/>
<path fill-rule="evenodd" clip-rule="evenodd" d="M-1 -8V24.9876L4.92542 31L34.4639 1.02331L64.0023 31L93.5455 1.02331L123.079 31L129 24.9924V-8H-1Z" fill="#FFBF33"/>
</g>
</g>
<path d="M22.2915 27.144C21.4488 27.144 20.6168 27.032 19.7955 26.808C18.9742 26.584 18.3075 26.2853 17.7955 25.912L18.7075 23.832C19.2515 24.1733 19.8328 24.4347 20.4515 24.616C21.0702 24.7973 21.6942 24.888 22.3235 24.888C22.9635 24.888 23.4488 24.8027 23.7795 24.632C24.1208 24.4507 24.2915 24.2 24.2915 23.88C24.2915 23.592 24.1368 23.3573 23.8275 23.176C23.5288 22.9947 22.9528 22.8133 22.0995 22.632C21.0435 22.408 20.2168 22.1413 19.6195 21.832C19.0222 21.5227 18.6008 21.16 18.3555 20.744C18.1208 20.328 18.0035 19.816 18.0035 19.208C18.0035 18.5147 18.1955 17.896 18.5795 17.352C18.9742 16.7973 19.5235 16.3653 20.2275 16.056C20.9422 15.736 21.7582 15.576 22.6755 15.576C23.4862 15.576 24.2702 15.6933 25.0275 15.928C25.7955 16.152 26.3928 16.4453 26.8195 16.808L25.9235 18.888C24.8995 18.184 23.8222 17.832 22.6915 17.832C22.1475 17.832 21.7102 17.9387 21.3795 18.152C21.0488 18.3547 20.8835 18.6267 20.8835 18.968C20.8835 19.1707 20.9422 19.336 21.0595 19.464C21.1768 19.592 21.3955 19.72 21.7155 19.848C22.0355 19.9653 22.5102 20.088 23.1395 20.216C24.1635 20.44 24.9688 20.712 25.5555 21.032C26.1422 21.3413 26.5582 21.704 26.8035 22.12C27.0488 22.536 27.1715 23.032 27.1715 23.608C27.1715 24.7173 26.7448 25.5867 25.8915 26.216C25.0382 26.8347 23.8382 27.144 22.2915 27.144Z" fill="white"/>
</g>
</svg>
